<mxfile host="app.diagrams.net" agent="Mozilla/5.0 (Macintosh; Intel Mac OS X 10_15_7) AppleWebKit/605.1.15 (KHTML, like Gecko) Version/17.5 Safari/605.1.15" version="24.8.0">
  <diagram name="PÃ¡gina-1" id="OIXTgLf64izgKbHkg--k">
    <mxGraphModel dx="984" dy="694" grid="1" gridSize="10" guides="1" tooltips="1" connect="1" arrows="1" fold="1" page="1" pageScale="1" pageWidth="827" pageHeight="1169" math="0" shadow="0">
      <root>
        <mxCell id="0" />
        <mxCell id="1" parent="0" />
        <mxCell id="Z-ajgaYpH4pfVFJHFm7N-2" value="Actor" style="shape=umlActor;verticalLabelPosition=bottom;verticalAlign=top;html=1;" vertex="1" parent="1">
          <mxGeometry x="160" y="180" width="30" height="60" as="geometry" />
        </mxCell>
        <mxCell id="Z-ajgaYpH4pfVFJHFm7N-3" value="1" style="endArrow=open;html=1;endSize=12;startArrow=diamondThin;startSize=14;startFill=0;edgeStyle=orthogonalEdgeStyle;align=left;verticalAlign=bottom;rounded=0;" edge="1" parent="1">
          <mxGeometry x="-1" y="3" relative="1" as="geometry">
            <mxPoint x="190" y="209.5" as="sourcePoint" />
            <mxPoint x="350" y="209.5" as="targetPoint" />
          </mxGeometry>
        </mxCell>
        <mxCell id="Z-ajgaYpH4pfVFJHFm7N-4" value="Conectar Base De Datos" style="ellipse;whiteSpace=wrap;html=1;" vertex="1" parent="1">
          <mxGeometry x="360" y="170" width="140" height="70" as="geometry" />
        </mxCell>
        <mxCell id="Z-ajgaYpH4pfVFJHFm7N-6" value="Diagrama Caso de Uso" style="text;html=1;align=center;verticalAlign=middle;whiteSpace=wrap;rounded=0;fillColor=#d5e8d4;strokeColor=#82b366;fontStyle=1;fontSize=19;" vertex="1" parent="1">
          <mxGeometry x="180" y="60" width="460" height="30" as="geometry" />
        </mxCell>
      </root>
    </mxGraphModel>
  </diagram>
</mxfile>
